<svg width="639" height="145" viewBox="0 0 639 145" fill="none" xmlns="http://www.w3.org/2000/svg">
<path d="M574.875 133.259C574.875 139.527 580.195 144.003 587.644 144.003H625.95C633.398 144.003 638.719 139.527 638.719 133.259V111.772C638.719 105.505 633.398 101.028 625.95 101.028H587.644C580.195 101.028 574.875 105.505 574.875 111.772V133.259ZM0.28125 133.259C0.28125 139.527 5.60156 144.003 13.05 144.003H51.3563C58.8047 144.003 64.125 139.527 64.125 133.259V111.772C64.125 105.505 58.8047 101.028 51.3563 101.028H13.05C5.60156 101.028 0.28125 105.505 0.28125 111.772V133.259Z" fill="#B2C1C0"/>
<path d="M534.441 22.2406C541.493 22.2406 547.209 17.4305 547.209 11.4969C547.209 5.56326 541.493 0.753143 534.441 0.753143C527.389 0.753143 521.672 5.56326 521.672 11.4969C521.672 17.4305 527.389 22.2406 534.441 22.2406Z" fill="#B2C1C0"/>
</svg>
