<svg width="74" height="68" viewBox="0 0 74 68" fill="none" xmlns="http://www.w3.org/2000/svg">
<path d="M48.8141 12.5047C46.6859 17.8766 41.3657 23.2484 37.1094 23.2484C32.8532 23.2484 27.5329 18.7719 25.4047 12.5047V11.6094C23.2766 6.23751 28.5969 0.865631 38.1734 0.865631C45.6219 1.76094 50.9422 6.2375 48.8141 12.5047M21.1485 14.2953C26.4688 18.7719 28.5969 25.0391 25.4047 28.6203C23.2766 32.2016 15.8281 33.0969 8.3797 32.2016H7.31566C-0.13278 31.3063 -2.26092 24.1438 3.05939 17.8766C7.31564 11.6094 14.7641 9.81876 21.1485 14.2953ZM8.3797 35.7828C15.8281 34.8875 23.2766 35.7828 25.4047 39.3641C27.5329 42.9453 25.4047 49.2125 21.1485 53.6891L20.0844 54.5844C14.7641 59.0609 7.31564 57.2703 3.05939 51.0032C-1.19686 43.8407 0.931266 37.5735 8.3797 35.7828ZM24.3406 55.4797C26.4688 50.1078 31.7891 44.736 36.0454 44.736C40.3016 44.736 45.6219 49.2125 47.75 55.4797V56.375C49.8782 61.7469 44.5578 67.1188 34.9813 67.1188C27.5328 67.1188 22.2125 61.7469 24.3406 55.4797M52.0063 53.6891C46.686 49.2125 44.5578 42.9453 47.75 39.3641C49.8782 35.7828 57.3266 34.8875 64.775 35.7828H65.8391C73.2875 36.6781 75.4156 43.8406 70.0953 50.1078C64.775 57.2703 57.3266 59.061 52.0063 53.6891ZM64.775 32.2016C57.3266 33.0969 49.8782 32.2016 47.75 28.6203C45.6219 25.0391 47.75 18.7719 52.0063 14.2953L53.0703 13.4C58.3907 8.92346 65.8391 10.7141 70.0953 16.9812C74.3516 24.1437 72.2234 31.3063 64.775 32.2016Z" fill="#3E4347"/>
</svg>
