<svg width="241" height="85" viewBox="0 0 241 85" fill="none" xmlns="http://www.w3.org/2000/svg">
<path d="M140.934 75.7203C140.934 81.0922 145.191 84.6734 150.511 84.6734H232.444C237.764 84.6734 240.956 80.1969 239.892 75.7203L226.059 9.46718C224.995 4.0953 219.675 0.514053 214.355 0.514053H150.511C145.191 0.514053 140.934 4.99062 140.934 9.46718V75.7203M120.717 9.46718C120.717 4.0953 116.461 0.514053 111.141 0.514053H56.8734C51.5531 0.514053 45.1687 4.09532 41.9766 8.57188L1.54219 76.6156C-0.585936 81.0922 1.54219 84.6734 6.8625 84.6734H110.077C115.397 84.6734 119.653 80.1969 119.653 75.7203V9.46718H120.717Z" fill="#B4D7EE"/>
</svg>
