<?xml version="1.0" standalone="no"?>
<!DOCTYPE svg PUBLIC "-//W3C//DTD SVG 20010904//EN"
 "http://www.w3.org/TR/2001/REC-SVG-20010904/DTD/svg10.dtd">
<svg version="1.0" xmlns="http://www.w3.org/2000/svg"
 width="200.000000pt" height="119.268293pt" viewBox="0 0 200.000000 119.268293"
 preserveAspectRatio="xMidYMid meet">
<metadata>
Created by potrace 1.16, written by Peter Selinger 2001-2019
</metadata>
<g transform="translate(0.000000,119.268293) scale(0.024390,-0.024390)"
fill="#000000" stroke="none">
<path d="M5340 4365 c-278 -57 -514 -109 -525 -116 -29 -18 -134 -103 -131
-106 3 -3 1179 317 1185 323 8 8 -28 1 -529 -101z"/>
<path d="M6000 4375 c-445 -91 -417 -97 115 -22 131 18 149 19 137 4 -5 -7
-44 -56 -86 -109 l-77 -97 -37 16 c-20 8 -71 32 -113 53 -61 31 -95 41 -175
51 -92 11 -106 10 -197 -11 -112 -26 -136 -43 -50 -35 32 3 78 7 103 10 30 2
71 -5 127 -23 79 -26 83 -29 151 -108 97 -113 122 -182 122 -341 l0 -116 -57
-77 -58 -78 -80 -23 c-44 -12 -84 -25 -88 -29 -5 -4 31 -11 78 -15 86 -7 87
-7 116 22 17 15 57 53 90 84 l61 56 144 407 c163 460 162 456 143 455 -8 -1
-174 -34 -369 -74z"/>
<path d="M6485 4218 c-18 -86 -167 -742 -172 -757 -4 -11 -3 -13 4 -6 6 6 46
100 91 210 l80 200 7 193 c3 105 4 192 1 192 -2 0 -7 -15 -11 -32z"/>
<path d="M5332 4179 c-41 -40 -42 -41 -42 -112 0 -40 -4 -77 -8 -83 -4 -6 -55
-47 -114 -93 -60 -45 -108 -85 -108 -87 0 -6 -21 -19 233 136 120 73 216 137
215 141 -5 14 -119 139 -127 139 -4 0 -27 -18 -49 -41z"/>
<path d="M4809 4052 l-306 -116 -52 -89 c-33 -57 -46 -87 -35 -83 9 3 125 68
258 143 132 75 285 161 339 191 53 30 100 58 103 63 3 5 4 8 2 8 -2 -1 -141
-53 -309 -117z"/>
<path d="M5620 4061 c83 -45 116 -85 124 -152 l7 -55 -441 -385 c-243 -211
-453 -391 -466 -399 -24 -15 -26 -13 -82 46 -31 34 -105 93 -164 132 -86 58
-120 75 -178 88 -40 9 -68 20 -63 24 17 16 327 219 330 216 1 -1 -24 -53 -57
-115 -33 -62 -60 -118 -60 -125 0 -6 23 -23 50 -38 l50 -28 192 141 c106 78
202 151 213 161 11 11 -58 -19 -154 -67 -95 -47 -175 -84 -178 -82 -2 3 32 93
76 201 45 107 81 200 81 205 0 30 30 14 108 -56 118 -106 137 -119 73 -48 -73
80 -192 205 -196 205 -2 0 -41 -70 -87 -155 l-83 -155 -304 -156 c-223 -115
-308 -154 -321 -147 -39 19 -367 298 -354 301 8 2 72 -8 142 -22 223 -44 523
-97 533 -94 5 2 -120 41 -278 87 -159 46 -332 97 -386 113 -55 16 -101 27
-103 25 -3 -3 72 -122 165 -266 l171 -261 -20 -51 c-15 -37 -20 -74 -20 -142
l0 -92 -480 -130 c-264 -72 -479 -133 -477 -137 1 -4 43 -27 92 -52 l90 -44
-332 -163 c-183 -90 -332 -167 -333 -171 0 -3 111 22 248 57 136 35 240 59
231 52 -10 -7 -139 -82 -288 -167 -148 -85 -269 -159 -268 -164 2 -5 56 -23
120 -40 64 -17 117 -35 117 -39 1 -5 -99 -76 -222 -159 -123 -82 -230 -156
-238 -164 -18 -18 -21 -18 145 1 72 8 179 15 240 15 l110 0 -145 -145 c-141
-141 -143 -144 -118 -154 14 -5 43 -13 64 -17 22 -3 45 -10 52 -13 8 -5 -93
-127 -294 -356 -168 -193 -318 -363 -332 -379 l-27 -30 38 22 c20 12 182 122
360 245 177 123 329 227 336 232 17 10 12 2 -147 -218 -63 -87 -113 -160 -111
-162 2 -1 112 64 244 146 131 81 241 146 243 144 2 -2 -18 -41 -45 -87 -76
-128 -78 -132 -59 -125 14 6 146 89 730 463 98 63 180 113 182 111 3 -2 -2
-36 -11 -76 -8 -40 -15 -82 -15 -94 1 -22 1 -22 16 -2 8 11 61 95 117 187 56
93 104 168 107 168 3 0 14 -31 24 -70 10 -39 21 -70 25 -70 4 0 52 94 107 210
54 115 102 210 105 210 3 0 11 -37 18 -83 7 -46 16 -89 21 -97 5 -9 20 24 43
96 49 155 216 636 223 643 3 3 16 -6 27 -20 17 -20 238 -277 279 -323 4 -5 10
-8 12 -5 3 2 35 99 71 214 126 398 147 460 170 490 37 49 588 669 717 807 115
123 119 129 128 185 6 32 10 83 10 113 0 74 -43 216 -72 240 -40 35 -121 70
-173 75 l-50 6 55 -30z m-1221 -831 c104 -37 119 -46 220 -131 l109 -90 45
-119 c25 -65 51 -146 57 -180 11 -60 10 -63 -16 -102 -46 -66 -134 -119 -231
-138 -92 -18 -94 -17 -63 45 18 35 19 48 10 121 -8 76 -13 88 -55 145 -26 35
-80 89 -120 120 -68 52 -81 58 -155 70 -44 7 -80 15 -80 19 0 3 59 21 130 39
72 19 130 38 130 42 0 5 -3 9 -6 9 -4 0 -52 7 -107 16 l-100 16 -53 -59 c-29
-32 -51 -63 -49 -70 4 -13 -53 -53 -75 -53 -10 0 -11 19 -5 82 9 104 47 185
107 228 37 27 48 30 118 30 64 0 95 -7 189 -40z m-395 -367 c-5 -46 -2 -68 15
-105 11 -27 22 -48 24 -48 2 0 50 16 107 35 57 19 112 35 122 35 10 0 40 -16
68 -36 55 -39 56 -44 40 -140 -6 -32 -12 -71 -15 -86 -4 -25 -1 -27 51 -38 49
-10 54 -14 49 -33 -4 -12 -63 -140 -133 -285 -124 -260 -139 -281 -141 -204
-1 12 -4 22 -8 22 -5 0 -60 -93 -123 -206 l-115 -206 -7 47 c-4 26 -9 49 -12
52 -2 3 -39 -42 -81 -99 -43 -56 -80 -105 -82 -108 -3 -3 -2 16 1 43 4 26 4
47 -1 47 -4 -1 -197 -146 -428 -324 -231 -178 -421 -322 -423 -321 -1 1 10 36
27 76 16 41 26 75 22 77 -4 1 -75 -35 -157 -82 -82 -46 -150 -83 -152 -81 -2
1 33 75 77 164 45 89 77 161 72 161 -6 0 -62 -31 -126 -70 -63 -38 -115 -68
-115 -65 0 2 49 86 108 187 146 246 138 230 108 219 -13 -6 -61 -28 -106 -51
-45 -23 -83 -40 -85 -38 -2 2 75 75 171 162 96 88 173 161 170 163 -2 2 -94
-6 -206 -17 -111 -12 -204 -20 -206 -17 -2 2 82 70 187 152 134 103 188 150
178 155 -8 4 -52 13 -99 20 -47 7 -93 16 -103 19 -12 5 80 59 303 181 176 96
320 178 320 181 0 4 -35 10 -77 14 -43 3 -85 7 -93 8 -8 1 40 36 108 77 67 41
122 77 122 80 0 4 -32 20 -70 35 -39 16 -67 32 -63 35 4 4 163 60 353 125 190
65 350 120 356 122 7 2 15 -12 19 -34 l8 -38 9 35 c14 54 17 60 28 60 6 0 8
-21 4 -57z m887 -365 c-67 -147 -172 -361 -175 -357 -2 2 -49 68 -105 147 -75
107 -96 141 -79 135 13 -4 62 -7 110 -6 81 2 91 5 160 43 44 25 80 53 90 71
29 50 28 32 -1 -33z"/>
<path d="M4546 2833 c9 -227 16 -333 22 -333 10 1 132 187 132 201 0 15 -140
239 -150 239 -4 0 -6 -48 -4 -107z"/>
<path d="M3908 2665 c-118 -30 -162 -47 -319 -126 -194 -97 -199 -103 -102
-115 29 -3 53 -9 53 -13 0 -3 -66 -60 -147 -126 l-147 -120 77 -14 c42 -8 77
-17 77 -20 0 -3 -61 -49 -136 -101 l-136 -95 28 -12 c16 -7 35 -12 43 -13 7 0
11 -6 8 -14 -3 -7 -96 -144 -207 -305 -111 -161 -201 -293 -199 -295 2 -2 148
84 324 190 176 106 323 193 326 193 4 1 -2 -33 -13 -75 -10 -42 -17 -78 -15
-81 3 -2 59 64 126 148 71 88 123 146 125 138 3 -8 10 -33 16 -56 6 -24 13
-43 15 -43 3 0 59 82 126 182 99 148 124 179 133 167 34 -46 57 -72 60 -68 12
16 174 511 162 499 -8 -8 -101 -127 -206 -265 -106 -137 -195 -250 -198 -250
-3 0 -10 14 -16 32 -6 17 -14 34 -17 38 -4 3 -55 -60 -115 -141 -112 -152
-121 -159 -123 -81 -1 15 -6 27 -11 27 -6 0 -81 -50 -168 -112 -267 -189 -282
-199 -282 -193 0 4 89 99 198 212 108 112 199 209 200 214 3 6 -27 7 -80 3
-54 -4 -79 -3 -73 3 6 6 82 61 170 123 88 62 162 115 164 117 12 9 -13 10 -94
4 -49 -4 -91 -7 -93 -5 -2 1 65 48 148 105 l151 103 -46 21 -46 20 211 114
c115 62 210 115 210 117 0 8 -26 3 -162 -31z"/>
<path d="M5997 2868 c-97 -221 -175 -403 -174 -405 2 -1 35 20 74 48 l70 50
63 207 c34 114 82 272 107 351 24 79 42 145 41 147 -2 2 -83 -178 -181 -398z"/>
<path d="M5772 3035 l-142 -164 14 -66 c8 -36 16 -68 19 -71 2 -3 61 100 130
228 70 127 125 233 124 235 -2 1 -67 -71 -145 -162z"/>
</g>
</svg>
